<?xml version="1.0" encoding="UTF-8"?><svg id="Layer_2" xmlns="http://www.w3.org/2000/svg" viewBox="0 0 1000 1000"><defs><style>.cls-1{font-family:ScriptMTBold, 'Script MT Bold';font-size:224.01px;}</style></defs><path d="m445.56,502c-10.04,212.02-32.71,407.71-125.45,407.71-38.53,0-16.64-56.45-62.72-56.45-46.59,0-36.74,79.75,62.72,79.75,138.91,0,179.15-212.96,189.07-431h.02c10.04-212.02,32.71-407.71,125.45-407.71,38.53,0,16.64,56.45,62.72,56.45s36.74-79.75-62.72-79.75c-138.91,0-179.15,212.96-189.07,431h-.02Z"/><text class="cls-1" transform="translate(557.71 806.99)"><tspan x="0" y="0">2</tspan></text><path d="m445.56,502c-10.04,212.02-32.71,407.71-125.45,407.71-38.53,0-16.64-56.45-62.72-56.45-46.59,0-36.74,79.75,62.72,79.75,138.91,0,179.15-212.96,189.07-431h.02c10.04-212.02,32.71-407.71,125.45-407.71,38.53,0,16.64,56.45,62.72,56.45s36.74-79.75-62.72-79.75c-138.91,0-179.15,212.96-189.07,431h-.02Z"/></svg>