<?xml version="1.0" standalone="no"?>
<!DOCTYPE svg PUBLIC "-//W3C//DTD SVG 20010904//EN"
 "http://www.w3.org/TR/2001/REC-SVG-20010904/DTD/svg10.dtd">
<svg version="1.0" xmlns="http://www.w3.org/2000/svg"
 width="1000.000000pt" height="1000.000000pt" viewBox="0 0 1000.000000 1000.000000"
 preserveAspectRatio="xMidYMid meet">
<metadata>
Created by potrace 1.11, written by Peter Selinger 2001-2013
</metadata>
<g transform="translate(0.000000,1000.000000) scale(0.100000,-0.100000)"
fill="#000000" stroke="none">
<path d="M4607 8944 c-1 -1 -96 -5 -212 -8 -115 -4 -230 -9 -255 -10 -118 -9
-209 -17 -247 -21 -128 -14 -216 -25 -253 -30 -14 -2 -45 -7 -70 -10 -219 -30
-644 -121 -794 -169 -22 -8 -81 -26 -131 -41 -125 -38 -328 -113 -470 -175
-657 -282 -1271 -817 -1671 -1455 -122 -194 -247 -455 -255 -530 -1 -5 -5 -17
-9 -25 -5 -9 -11 -36 -15 -60 -4 -25 -8 -47 -10 -51 -7 -11 -18 -164 -18 -259
0 -91 11 -279 18 -290 1 -3 6 -27 9 -55 32 -240 135 -525 267 -743 274 -449
783 -788 1494 -997 145 -42 392 -102 510 -122 17 -3 37 -7 45 -8 8 -2 22 -4
31 -4 11 -1 22 -25 37 -81 65 -241 230 -456 507 -657 74 -54 210 -135 285
-170 49 -23 217 -78 265 -87 17 -3 62 -12 100 -20 148 -30 285 -40 530 -40
170 0 396 10 440 19 18 4 95 12 185 20 19 2 49 6 65 9 17 2 49 8 72 11 149 21
187 27 231 35 l44 8 55 -117 c70 -149 240 -489 280 -561 17 -30 47 -86 68
-125 52 -98 107 -189 117 -193 4 -2 8 -10 8 -17 0 -7 11 -27 25 -43 14 -17 25
-33 25 -36 0 -12 83 -120 134 -175 28 -30 85 -80 126 -113 41 -32 80 -63 87
-68 39 -31 343 -202 356 -199 1 0 27 -11 57 -24 140 -62 442 -169 541 -192 33
-8 160 65 196 112 21 28 24 40 20 80 -6 57 -42 160 -91 259 -25 52 -56 93
-118 155 -94 94 -185 206 -209 259 -20 41 -47 139 -54 194 -6 42 -8 256 -3
261 2 2 66 6 143 9 208 10 347 22 474 42 13 2 45 6 70 10 25 4 55 8 66 10 11
3 36 7 55 10 19 3 43 7 52 10 10 3 28 7 40 10 128 24 320 89 441 150 264 133
440 353 518 651 22 84 34 341 21 438 l-7 50 90 59 c269 176 502 379 589 513
124 193 236 522 272 803 3 25 7 56 10 70 8 45 18 232 18 330 -2 546 -167 1115
-450 1546 -64 98 -151 220 -174 245 -8 9 -24 27 -34 40 -314 397 -907 858
-1316 1023 -187 76 -472 166 -752 237 -147 37 -121 31 -293 68 -145 31 -154
33 -245 50 -30 6 -66 13 -80 16 -28 6 -140 25 -185 31 -16 3 -52 9 -80 14 -27
5 -68 12 -90 14 -22 3 -87 12 -145 20 -58 8 -127 17 -155 20 -27 3 -68 8 -90
10 -22 3 -71 8 -110 11 -38 3 -81 8 -95 10 -14 2 -74 7 -135 11 -60 3 -119 8
-129 10 -27 5 -634 22 -639 18z m-186 -275 c53 -37 73 -77 73 -144 1 -76 -28
-125 -94 -158 l-46 -23 1 -603 0 -603 170 -164 c94 -91 224 -219 291 -284 66
-66 125 -120 130 -120 5 0 25 15 45 34 l36 34 49 -49 c27 -26 52 -49 56 -49 4
0 49 40 100 89 51 49 110 104 131 124 l38 34 4 174 c2 96 5 240 6 320 l3 146
-65 60 c-35 32 -88 81 -118 109 -30 27 -70 64 -89 82 -23 21 -41 30 -51 26
-145 -61 -290 49 -257 195 34 148 228 184 318 59 24 -35 33 -123 17 -167 -9
-22 -5 -30 33 -65 24 -21 86 -79 139 -127 53 -49 107 -98 121 -108 24 -19 24
-23 22 -128 -2 -59 -5 -220 -8 -357 l-5 -249 -133 -133 c-73 -74 -135 -139
-136 -144 -4 -10 74 -90 86 -90 4 0 72 56 147 121 17 15 118 102 225 195 107
92 197 171 200 174 3 3 37 32 75 65 39 33 75 64 81 70 16 14 60 52 134 115 36
30 67 57 70 61 3 3 74 65 159 138 85 73 164 143 177 154 23 22 23 24 26 345 4
294 3 322 -12 322 -28 0 -96 56 -113 93 -37 78 -15 164 55 221 32 25 46 29 97
29 48 0 68 -5 99 -26 111 -73 104 -236 -13 -298 l-45 -24 -1 -185 c0 -102 -1
-231 -2 -288 -1 -56 0 -102 3 -102 8 1 30 19 170 140 141 122 140 121 133 149
-42 157 123 280 264 196 74 -44 101 -162 54 -238 -47 -77 -163 -107 -238 -62
l-32 19 -78 -70 c-43 -38 -83 -73 -89 -79 -6 -5 -40 -35 -75 -65 -35 -30 -104
-91 -154 -135 -50 -44 -111 -97 -134 -117 l-44 -38 134 0 c74 -1 399 -2 722
-5 l589 -3 134 -134 c74 -73 138 -134 143 -136 5 -2 24 4 42 13 69 36 198 27
264 -19 88 -60 129 -136 129 -241 2 -157 -113 -275 -273 -280 -114 -4 -208 53
-260 156 -27 54 -30 69 -27 133 2 43 10 85 21 105 l17 35 -124 120 -125 121
-434 3 c-239 2 -570 5 -736 6 l-301 3 -29 -26 c-15 -14 -80 -71 -143 -126 -63
-55 -124 -109 -135 -120 -11 -11 -32 -29 -46 -41 -15 -11 -62 -52 -105 -91
-72 -64 -150 -132 -349 -307 -38 -33 -90 -80 -114 -102 l-45 -42 51 -51 c28
-28 55 -51 59 -51 4 0 28 19 53 43 26 23 82 74 126 112 44 39 104 93 135 120
31 28 88 79 128 114 40 35 87 76 105 92 l32 29 230 0 c320 -1 305 -2 305 14 0
27 45 84 78 100 110 54 223 8 255 -102 44 -150 -115 -279 -250 -202 -36 20
-83 77 -83 100 0 13 24 11 -253 14 -226 2 -240 1 -266 -19 -24 -17 -103 -88
-432 -386 -14 -13 -42 -39 -62 -57 -21 -18 -37 -36 -37 -40 0 -5 18 -24 39
-43 l40 -34 -45 -46 -45 -46 88 -74 c48 -40 99 -84 113 -96 14 -12 60 -51 103
-86 l78 -65 1100 -1 c1025 -1 1101 -3 1117 -19 21 -20 185 -168 216 -195 12
-10 33 -29 49 -43 25 -23 31 -24 68 -14 76 21 148 -3 195 -66 38 -49 40 -141
3 -196 -72 -110 -248 -100 -304 18 -22 46 -22 123 -1 156 18 28 30 15 -194
207 l-95 81 -60 1 c-198 2 -2015 6 -2015 4 0 -1 34 -30 75 -64 41 -34 80 -68
87 -74 7 -7 83 -70 168 -142 85 -71 157 -132 160 -135 3 -3 29 -25 59 -50 30
-25 64 -53 75 -62 12 -10 35 -29 51 -43 l30 -25 240 -1 c132 -1 266 -2 298 -3
56 -1 59 0 73 30 39 82 124 123 214 102 98 -23 153 -152 105 -251 -41 -87
-169 -121 -249 -67 -37 25 -76 79 -76 106 0 12 -41 14 -266 14 l-265 0 353
-296 c194 -163 375 -315 402 -338 114 -95 202 -168 221 -184 11 -9 40 -34 65
-55 l45 -37 2 -83 c1 -45 2 -156 2 -247 l1 -166 43 -12 c80 -24 134 -79 187
-192 4 -9 6 -47 5 -86 -5 -151 -109 -261 -256 -272 -100 -7 -151 11 -219 78
-65 63 -90 122 -90 209 0 104 79 219 174 255 l43 16 -3 108 c-10 325 -11 345
-28 354 -8 5 -53 41 -98 79 -78 67 -153 130 -258 218 -25 21 -81 69 -126 107
-44 38 -145 123 -224 189 -79 66 -148 125 -154 130 -6 6 -38 32 -71 60 -33 27
-62 52 -65 55 -3 3 -61 53 -130 110 -69 57 -127 107 -130 110 -3 3 -44 37 -91
77 -48 39 -93 78 -100 85 -8 7 -39 33 -69 58 -30 25 -66 55 -80 67 -14 12 -90
76 -170 143 -80 67 -156 132 -170 144 -144 123 -328 276 -333 276 -6 0 -30
-23 -77 -74 l-25 -27 105 -101 c58 -55 213 -204 344 -331 334 -324 345 -334
519 -504 l156 -152 -4 -173 c-2 -95 -6 -333 -10 -528 -3 -195 -8 -440 -10
-545 -2 -104 -7 -340 -10 -524 -3 -184 -6 -337 -7 -340 -2 -20 3 -41 10 -39
17 6 72 -38 92 -74 69 -123 -11 -261 -151 -261 -105 0 -172 67 -172 174 0 45
5 66 24 93 13 20 27 36 30 36 3 0 15 9 27 20 12 12 22 18 22 16 0 -3 10 -2 23
3 22 8 22 11 24 207 3 340 13 1111 18 1519 l6 390 -133 128 c-73 71 -290 282
-482 470 -192 188 -377 369 -412 403 l-63 61 -53 -54 -53 -54 76 -72 c42 -40
136 -128 209 -197 73 -69 171 -161 217 -205 l84 -80 0 -633 0 -633 23 -9 c70
-26 125 -133 106 -201 -5 -16 -6 -29 -3 -29 16 0 -63 -80 -93 -95 -51 -24
-135 -23 -162 2 -7 7 -19 16 -25 20 -35 21 -60 76 -61 132 -1 76 33 130 101
162 l48 22 -3 614 -2 615 -39 36 c-21 20 -109 105 -196 187 -87 83 -197 187
-244 232 l-86 82 -52 -52 -53 -51 -49 52 -50 53 -133 -156 c-73 -86 -136 -164
-139 -173 -3 -9 -4 -78 -3 -152 1 -74 3 -191 4 -260 l1 -125 51 -40 c28 -22
56 -44 62 -50 6 -5 63 -54 127 -107 l116 -97 43 15 c152 52 288 -105 214 -247
-16 -32 -73 -81 -101 -86 -150 -31 -257 83 -219 233 8 30 4 34 -110 130 -277
232 -249 199 -250 286 -1 40 -4 179 -8 308 l-6 235 68 75 c38 41 105 116 150
165 l81 90 -57 57 c-31 32 -61 57 -66 58 -7 0 -351 -345 -902 -908 l-222 -226
22 -40 c30 -59 29 -183 -3 -245 -91 -175 -323 -212 -460 -72 -144 149 -77 406
122 468 52 15 155 11 193 -10 l31 -16 89 88 c427 426 1034 1042 1034 1049 0 6
-20 31 -45 58 l-45 47 -27 -24 c-14 -13 -41 -37 -58 -54 -18 -16 -80 -75 -139
-129 -59 -55 -121 -114 -139 -130 -33 -31 -226 -212 -327 -305 l-55 -51 -250
-1 c-493 -1 -1280 -6 -1287 -8 -5 0 -8 -10 -8 -21 0 -31 -73 -97 -121 -110
-111 -30 -221 52 -221 165 0 157 186 238 296 128 19 -20 39 -45 42 -57 4 -12
10 -23 14 -26 5 -3 342 -5 749 -4 l742 1 31 29 c17 16 41 38 53 49 12 11 66
61 120 110 53 50 114 106 135 125 21 19 84 78 140 130 57 52 116 108 133 123
17 16 52 47 78 71 l47 43 -45 46 -45 47 38 35 38 36 -114 109 -115 109 -371 1
-372 0 -28 -37 c-16 -21 -84 -107 -152 -190 l-124 -153 -491 5 c-271 3 -728 7
-1017 10 l-525 5 -20 -42 c-59 -123 -229 -137 -303 -25 -37 56 -38 147 -2 195
40 53 84 75 151 75 51 0 65 -4 96 -29 20 -17 45 -47 56 -67 l19 -37 261 -1
c144 0 438 -2 652 -5 215 -2 546 -6 737 -8 l346 -3 99 119 c54 66 110 134 125
151 16 17 26 33 23 35 -3 3 -213 5 -467 4 -430 -2 -462 -1 -477 15 -9 10 -66
74 -126 143 -61 69 -114 130 -120 136 -80 89 -142 160 -151 172 -9 13 -17 13
-59 -3 -68 -27 -156 -24 -225 7 -173 78 -219 312 -89 450 109 115 298 118 406
5 51 -53 70 -90 81 -158 9 -58 1 -112 -24 -165 -15 -32 -15 -35 8 -62 25 -32
322 -375 351 -407 17 -19 32 -20 343 -21 l325 -1 -28 31 c-15 17 -47 51 -69
76 -23 25 -92 101 -154 170 -62 69 -129 143 -150 165 -21 22 -53 58 -71 81
l-34 40 2 445 3 444 -42 23 c-64 34 -93 83 -92 158 0 50 5 67 28 97 42 55 73
71 141 71 70 1 115 -21 147 -72 60 -97 27 -215 -73 -258 l-40 -18 4 -431 5
-431 34 -35 c18 -19 59 -65 92 -102 32 -36 70 -79 85 -95 14 -15 58 -63 96
-106 39 -43 85 -95 103 -115 19 -20 52 -57 75 -83 l40 -47 504 3 503 3 87 -81
c48 -45 108 -102 134 -127 l48 -46 52 53 53 53 -75 71 c-41 39 -125 119 -187
178 -63 59 -140 133 -172 164 -90 87 -84 85 -260 84 -146 -1 -155 -2 -159 -21
-9 -51 -76 -109 -140 -120 -69 -12 -152 34 -182 99 -38 83 -12 175 62 222 88
55 204 24 252 -68 l19 -38 174 0 173 0 88 -84 c48 -46 104 -98 123 -116 19
-17 100 -93 179 -169 79 -75 148 -137 155 -139 6 -1 40 27 76 63 l65 66 -140
136 c-77 74 -215 208 -306 297 l-166 161 1 620 1 619 -30 15 c-38 21 -85 69
-97 101 -33 87 20 203 106 230 44 13 124 2 157 -21z"/>
<path d="M4281 8611 c-19 -10 -39 -32 -48 -52 -26 -63 21 -139 88 -139 77 0
125 72 95 143 -22 53 -83 75 -135 48z"/>
<path d="M6572 8414 c-48 -21 -69 -71 -53 -124 10 -34 19 -44 54 -59 35 -15
45 -16 67 -4 14 7 30 13 36 13 6 0 19 20 28 44 16 41 16 46 0 79 -10 20 -30
41 -51 51 -39 19 -38 19 -81 0z"/>
<path d="M2713 8179 c-34 -14 -44 -25 -53 -56 -17 -55 6 -108 54 -128 32 -13
40 -13 76 1 57 23 78 71 55 129 -11 30 -24 44 -53 56 -35 14 -41 14 -79 -2z"/>
<path d="M7065 7991 c-69 -41 -59 -145 16 -175 35 -14 43 -14 78 0 32 13 42
23 54 58 13 38 13 45 -4 78 -28 55 -90 72 -144 39z"/>
<path d="M4985 7960 c-11 -4 -29 -10 -40 -14 -11 -4 -28 -25 -37 -46 -15 -36
-15 -44 -2 -77 11 -29 25 -42 55 -55 38 -16 43 -16 78 -1 81 35 82 154 2 185
-20 8 -45 11 -56 8z"/>
<path d="M1879 7216 c-111 -39 -141 -182 -57 -263 46 -43 96 -55 157 -38 56
17 85 46 104 100 14 43 14 42 3 96 -9 43 -56 91 -105 108 -42 14 -57 13 -102
-3z"/>
<path d="M3629 6938 c-17 -7 -31 -25 -41 -52 -21 -58 -2 -105 53 -128 37 -16
44 -16 79 -2 52 21 73 71 53 130 -19 56 -78 78 -144 52z"/>
<path d="M8253 6895 c-24 -8 -54 -26 -68 -42 -31 -35 -56 -112 -44 -135 5 -9
9 -25 9 -36 0 -11 17 -35 39 -55 92 -83 230 -45 265 74 9 31 10 53 3 78 -13
45 -71 107 -106 114 -14 3 -33 8 -41 10 -8 3 -34 -1 -57 -8z"/>
<path d="M6721 6752 c-22 -11 -39 -30 -48 -53 -13 -33 -12 -41 4 -74 13 -27
29 -42 56 -53 34 -13 42 -13 76 2 50 23 69 71 50 128 -9 30 -21 43 -47 54 -44
18 -50 18 -91 -4z"/>
<path d="M975 6104 c-18 -9 -37 -31 -46 -52 -14 -35 -14 -41 2 -78 36 -86 144
-88 185 -3 20 41 20 45 5 80 -10 24 -28 43 -49 53 -40 19 -58 19 -97 0z"/>
<path d="M2075 5327 c-44 -14 -68 -74 -51 -125 18 -53 74 -79 128 -61 85 28
92 144 12 183 -38 18 -45 18 -89 3z"/>
<path d="M8473 5284 c-22 -9 -38 -27 -48 -51 -14 -34 -14 -41 0 -79 13 -36 22
-43 58 -53 89 -25 156 42 127 130 -10 30 -21 41 -52 53 -45 19 -43 19 -85 0z"/>
<path d="M7434 5015 c-45 -20 -64 -82 -41 -131 12 -23 30 -40 54 -50 33 -14
40 -14 75 2 76 34 84 132 14 175 -36 22 -59 23 -102 4z"/>
<path d="M3358 4566 c-148 -45 -152 -257 -5 -305 84 -28 184 25 205 110 20 81
-30 175 -104 193 -16 4 -36 8 -44 10 -8 2 -32 -1 -52 -8z"/>
<path d="M5103 4336 c-40 -14 -55 -29 -69 -69 -17 -51 8 -103 60 -120 59 -20
105 0 128 55 17 38 17 42 -1 77 -25 48 -74 72 -118 57z"/>
<path d="M5691 3682 c-75 -38 -72 -146 5 -178 32 -13 40 -13 78 1 55 21 75 67
56 126 -10 30 -21 41 -52 53 -48 20 -46 20 -87 -2z"/>
<path d="M7782 3365 c-24 -7 -56 -27 -73 -44 -16 -17 -27 -31 -25 -31 2 0 -2
-17 -9 -37 -26 -76 27 -170 109 -193 117 -32 219 62 201 184 -6 36 -16 54 -51
86 -24 22 -52 40 -63 40 -11 0 -25 2 -33 4 -7 3 -32 -1 -56 -9z"/>
<path d="M6351 2446 c-47 -17 -69 -71 -51 -126 11 -32 21 -42 54 -55 37 -14
45 -14 79 0 50 21 73 72 55 123 -21 57 -76 81 -137 58z"/>
</g>
</svg>
