<?xml version="1.0" encoding="UTF-8"?><svg id="Layer_9" xmlns="http://www.w3.org/2000/svg" viewBox="0 0 1000 1000"><path d="m828.51,193.79c-66.26,19.28-158.13-14.22-217-39.94-2.61-1.14-3.73-4.23-2.48-6.78l12.91-26.3c2.47-5.03.33-11.1-4.75-13.47l-62.99-29.37c-5.08-2.37-11.11-.1-13.37,5.02l-177.69,401.85-193.62,394.43c-2.47,5.03-.33,11.1,4.75,13.47l62.98,29.37c5.08,2.37,11.11.1,13.37-5.02l177.53-401.51,134.82-274.66c1.35-2.75,4.84-3.66,7.35-1.91,107.38,75.38,54.87,226.33,19.78,274.9-2.2,3.05.63,7.15,4.27,6.23,145.76-36.87,215.92-217.59,239.12-321.59.66-2.96-2.08-5.57-4.99-4.72Z"/></svg>