<?xml version="1.0" standalone="no"?>
<!DOCTYPE svg PUBLIC "-//W3C//DTD SVG 20010904//EN"
 "http://www.w3.org/TR/2001/REC-SVG-20010904/DTD/svg10.dtd">
<svg version="1.0" xmlns="http://www.w3.org/2000/svg"
 width="512.000000pt" height="512.000000pt" viewBox="0 0 512.000000 512.000000"
 preserveAspectRatio="xMidYMid meet">
<metadata>
Created by potrace 1.14, written by Peter Selinger 2001-2017
</metadata>
<g transform="translate(0.000000,512.000000) scale(0.100000,-0.100000)"
fill="#000000" stroke="none">
<path d="M2175 5108 c-66 -36 -89 -79 -100 -183 -6 -62 -12 -109 -20 -160 -2
-16 -7 -59 -10 -95 -13 -137 -6 -128 -130 -170 -120 -40 -226 -85 -309 -130
-30 -17 -59 -30 -66 -30 -6 0 -82 55 -168 123 -208 164 -213 167 -256 177 -76
17 -90 6 -366 -270 -290 -290 -295 -296 -264 -392 6 -18 171 -236 264 -347
l37 -45 -47 -93 c-52 -101 -115 -257 -136 -336 -7 -27 -17 -54 -22 -59 -4 -4
-46 -13 -93 -18 -87 -11 -132 -16 -196 -25 -21 -3 -62 -7 -92 -10 -29 -3 -71
-10 -91 -15 -41 -11 -96 -65 -105 -103 -3 -12 -5 -187 -3 -389 l3 -367 30 -31
c51 -54 44 -52 245 -75 25 -3 56 -7 70 -10 14 -2 54 -6 90 -10 36 -3 74 -8 85
-10 11 -2 29 -4 40 -4 16 -1 24 -12 33 -48 31 -118 148 -392 182 -427 10 -10
-19 -54 -121 -182 -35 -45 -77 -98 -94 -119 -52 -65 -85 -117 -86 -137 -1 -10
-2 -24 -2 -30 -3 -55 20 -84 266 -331 139 -140 261 -259 272 -264 30 -16 82
-22 114 -13 16 4 79 48 141 96 62 49 124 98 139 108 14 11 49 39 77 62 l50 42
55 -30 c85 -47 216 -103 325 -138 54 -18 102 -35 106 -39 6 -6 12 -39 22 -126
3 -22 10 -78 15 -125 6 -47 13 -107 16 -135 13 -110 37 -154 99 -180 29 -12
100 -15 392 -15 348 0 357 1 395 22 50 28 76 81 84 178 4 41 8 82 10 90 1 8 6
44 10 80 3 36 8 76 10 90 2 14 7 45 10 70 4 25 10 48 13 51 4 4 52 21 107 39
104 34 244 93 317 135 24 14 49 25 56 25 8 0 63 -39 124 -87 222 -176 257
-202 292 -211 39 -11 97 -2 124 20 9 7 128 124 264 260 270 270 279 283 257
363 -8 26 -61 102 -155 222 -79 100 -144 186 -144 192 0 7 15 42 34 79 60 115
93 194 126 297 18 55 35 103 39 107 8 9 83 20 221 33 36 3 72 8 80 10 8 2 38
6 65 9 128 15 146 22 189 80 20 26 21 42 24 397 2 327 1 372 -14 401 -32 61
-72 81 -189 93 -33 4 -71 8 -85 10 -14 2 -47 7 -75 10 -162 18 -209 25 -216
33 -4 4 -19 45 -33 91 -35 108 -85 229 -134 321 l-39 74 91 115 c50 64 93 118
96 121 8 8 96 124 105 139 16 28 23 83 13 117 -7 27 -71 97 -268 294 -261 261
-292 285 -347 275 -10 -2 -25 -4 -35 -4 -9 -1 -54 -30 -100 -66 -45 -36 -99
-78 -118 -93 -19 -15 -67 -53 -106 -84 -40 -32 -77 -58 -82 -58 -6 0 -59 24
-119 54 -106 53 -232 102 -325 127 -27 8 -48 16 -48 19 0 6 -16 143 -25 215
-3 22 -8 65 -11 95 -10 108 -26 175 -47 207 -41 61 -58 63 -455 63 -241 -1
-363 -4 -377 -12z m627 -1291 c244 -50 463 -164 638 -332 89 -85 114 -115 174
-203 157 -231 225 -462 221 -740 -4 -186 -10 -226 -67 -397 -111 -338 -388
-631 -722 -767 -164 -67 -322 -96 -510 -93 -143 3 -172 7 -289 36 -90 23 -135
39 -227 81 -60 28 -179 95 -190 107 -3 4 -30 25 -60 47 -239 180 -418 481
-471 794 -21 121 -18 341 6 454 10 50 14 69 20 86 3 10 7 27 9 37 9 43 69 184
111 257 197 345 529 577 920 640 104 17 338 13 437 -7z"/>
</g>
</svg>
