<?xml version="1.0" encoding="UTF-8"?><svg id="Layer_8" xmlns="http://www.w3.org/2000/svg" viewBox="0 0 1000 1000"><path d="m702.79,590.61l-8.53,79.64c-.5,4.68-4.2,8.38-8.88,8.88l-79.64,8.53c-3.08.33-6.13-.78-8.28-3.01L117.43,185.01c-1.54-1.6-2.5-3.66-2.73-5.86l-8.23-76.81c-.68-6.34,4.67-11.69,11.01-11.01l76.81,8.23c2.2.24,4.27,1.2,5.86,2.73l499.63,480.04c2.23,2.14,3.34,5.2,3.01,8.28Z"/><path d="m896.67,818.29l-107.39-122.55c-1.27-1.45-2.1-3.24-2.37-5.14l-35.57-243.44c-.51-3.49-5.57-3.39-5.95.11l-27.17,251.38c-.25,2.34-2.1,4.18-4.43,4.43l-251.38,27.17c-3.5.38-3.6,5.44-.11,5.95l243.44,35.57c1.91.28,3.69,1.1,5.14,2.37l122.55,107.39c2.36,2.06,5.54,2.91,8.61,2.27l40.74-8.41c3.91-.81,6.97-3.86,7.77-7.77l8.41-40.74c.63-3.07-.21-6.26-2.27-8.61Z"/></svg>