<?xml version="1.0" standalone="no"?>
<!DOCTYPE svg PUBLIC "-//W3C//DTD SVG 20010904//EN" "http://www.w3.org/TR/2001/REC-SVG-20010904/DTD/svg10.dtd">
<!-- Created using Krita: https://krita.org -->
<svg xmlns="http://www.w3.org/2000/svg" 
    xmlns:xlink="http://www.w3.org/1999/xlink"
    xmlns:krita="http://krita.org/namespaces/svg/krita"
    xmlns:sodipodi="http://sodipodi.sourceforge.net/DTD/sodipodi-0.dtd"
    width="324pt"
    height="234pt"
    viewBox="0 0 324 234">
<defs/>
<rect id="shape05" transform="matrix(2.38733792892636 0 0 2.38733779929449 37.369191092427 36.5954630691333)" fill="#805122" fill-rule="evenodd" stroke="#000000" stroke-opacity="0" stroke-width="0" stroke-linecap="square" stroke-linejoin="bevel" width="102.6" height="69.48" rx="14.9667095274621" ry="14.9667095274621"/><path id="shape0" transform="matrix(-0.0726242672484372 1.26709345643908 1.26709345643908 0.0726242672484372 97.916314378715 108.010938277573)" fill="#402811" fill-rule="evenodd" stroke="#000000" stroke-opacity="0" stroke-width="0" stroke-linecap="square" stroke-linejoin="bevel" d="M0 16.6032L1.74066 10.8456L8.70326 14.193C12.9628 9.46197 10.5985 4.731 7.09651 0C16.9279 1.47487 24.2088 -0.0506917 33.5453 14.2018C28.5659 11.842 15.8916 7.2136 13.3897 15.9336C36.0257 25.5199 52.3245 37.8221 70.2956 49.4078L67.6177 54.228C41.7856 33.6701 19.2465 21.1286 0 16.6032Z"/><path id="shape01" transform="matrix(-0.11411941572702 1.26403203601248 -1.26403203601248 -0.11411941572702 272.929766935524 51.6212584501795)" fill="#402811" fill-rule="evenodd" stroke="#000000" stroke-opacity="0" stroke-width="0" stroke-linecap="square" stroke-linejoin="bevel" d="M0 26.9122L2.82144 17.5797L14.1072 23.0056C21.0115 15.3371 17.1792 7.66853 11.5028 0C27.4386 2.39063 39.2402 -0.0821666 54.3737 23.0199C46.3027 19.1947 25.7588 11.6926 21.7034 25.827C58.3944 41.3655 84.8132 61.3063 113.943 80.0855L109.602 87.8987C67.7307 54.5763 31.1967 34.2475 0 26.9122Z"/><path id="shape2" transform="matrix(1.01676181561515 0 0 1.01676181561515 103.985241365766 68.350522867328)" fill="#45d3ff" fill-rule="evenodd" stroke="#000000" stroke-opacity="0" stroke-width="0" stroke-linecap="square" stroke-linejoin="bevel" d="M18.72 11.34C25.4449 10.0466 28.44 3.78 33.3 0C33.1551 3.49087 32.5521 7.18221 28.62 12.33C27.9454 15.5079 24.3259 18.2651 20.34 20.97C20.0424 24.18 21.538 27.39 22.59 30.6L19.35 35.73L15.12 30.96C15.5473 27.7701 18.0912 25.0687 15.75 21.24C12.507 20.6101 8.2111 19.2702 5.04 16.02C-0.353166 7.69956 0.699993 7.05333 0 4.32C5.16049 7.67684 10.9734 12.5248 14.58 12.33L13.32 9.36L15.12 6.75L17.82 8.73C17.82 8.73 18.12 9.6 18.72 11.34Z"/><path id="shape01" transform="matrix(1.05999297428885 0 0 1.05999297428885 76.8349537289567 165.585952263967)" fill="#ffa245" fill-rule="evenodd" stroke="#000000" stroke-opacity="0" stroke-width="0" stroke-linecap="square" stroke-linejoin="bevel" d="M62.1276 4.79021L86.5141 0L107.127 3.48379L126.578 15.6771L146.9 16.6932L160.69 24.5317L129.336 30.0477L132.674 24.0962L141.529 22.6446L138.045 20.9027L122.223 19.5963L111.917 25.1123L91.1592 24.5317L75.9176 21.1931L86.0787 17.9996L103.062 20.3221L107.562 19.0157L91.014 15.8222L93.4817 11.4675L101.611 10.0159L96.6752 6.24179L80.5627 7.40305L89.8528 10.5965L87.0948 13.2094L80.7078 16.4028L66.192 19.7415L68.3694 24.6768L80.7078 28.1606L70.2564 30.0477L55.0149 25.1123L59.5148 20.4673L45.1441 20.9027L49.3537 25.5478L33.8218 24.822L40.3539 19.4512L52.5472 16.6932L52.402 13.6448L39.0475 14.3706L31.9347 20.3221L19.7415 25.8381L0 24.6768L12.7739 21.7737L19.1608 13.0642L36.2895 10.7417L44.4183 7.83853L56.7568 8.274C56.7568 8.274 58.547 7.11274 62.1276 4.79021Z"/><path id="shape1" transform="matrix(1.01676181561515 0 0 1.01676181561515 111.44233742511 23.7167390464968)" fill="#ffa245" fill-rule="evenodd" stroke="#000000" stroke-opacity="0" stroke-width="0" stroke-linecap="square" stroke-linejoin="bevel" d="M35.6382 61.3486C29.385 90.8395 33.2553 120.842 33.4744 125.243C35.2433 131.791 38.7289 139.198 37.4201 144.207C35.8927 144.895 35.0017 146.059 32.6258 147.128C32.4731 148.121 32.1196 149.566 31.5652 151.462C34.7727 151.759 37.0637 151.971 38.4383 152.099C40.636 151.92 41.7349 151.831 43.1477 151.717C43.3647 151.327 43.9075 150.351 44.7758 148.789C46.487 147.703 47.5565 147.024 47.9843 146.753C46.8897 142.145 45.0653 134.466 42.5113 123.715C43.5681 115.4 44.3229 109.46 44.7758 105.896C45.6279 105.964 47.758 106.134 51.1662 106.405C58.47 119.979 62.4583 132.815 66.8216 145.735C66.7198 146.498 66.5501 147.771 66.3125 149.553C66.3125 150.8 66.3125 151.691 66.3125 152.226C68.2217 152.15 71.4036 152.022 75.8584 151.844C75.782 151.055 75.6548 149.74 75.4766 147.898C73.9917 145.76 72.931 144.233 72.2946 143.316C68.4263 124.688 66.6852 118.824 64.0214 107.424C64.9124 107.118 66.9489 106.694 70.1309 106.151C62.5617 94.0789 57.83 84.5779 55.9358 77.648C55.7044 75.0353 57.6432 64.2181 60.4576 58.2939C61.2233 56.6563 61.6475 54.6623 61.7304 52.3118C67.8119 43.5485 76.7936 33.591 77.6403 26.9832C77.5041 18.4318 71.7551 11.003 68.6035 3.0547L63.3851 0L62.7487 4.45477L65.6761 7.50947C66.9945 13.6169 69.229 20.9022 68.3489 24.1831L63.5123 32.7108C61.1744 34.8844 59.0965 37.7084 56.1301 38.311L50.6571 37.1655C52.2886 35.3001 53.222 33.2212 53.4573 30.9289C53.8102 27.4903 52.9488 21.5893 51.039 19.9828C49.1291 18.3764 44.6256 20.0144 43.1477 21.1284C41.6697 22.2423 38.2543 25.421 39.7111 28.3833C40.6823 30.3581 41.5308 33.3704 42.2567 37.4201L42.2567 40.8566C39.6939 42.7651 36.1732 44.2424 33.6017 45.566C31.0302 46.8896 25.4472 57.2921 19.2192 61.8577C14.0512 63.2827 7.89933 65.9556 0.763675 69.8763C0.407294 72.371 0.152735 74.1529 0 75.222C2.07889 75.5784 3.11834 75.7566 4.45477 75.9857C4.60751 75.5784 4.98935 74.5602 5.60029 72.931C13.9612 71.4249 19.9858 70.1945 23.6739 69.2399C23.8867 69.5059 25.4683 68.7464 35.6382 61.3486Z"/><path id="shape3" transform="matrix(1.01676181561515 0 0 1.01676181561515 143.516940756883 1.45776299862014)" fill="#45d3ff" fill-rule="evenodd" stroke="#000000" stroke-opacity="0" stroke-width="0" stroke-linecap="square" stroke-linejoin="bevel" d="M0 11.16L1.17 7.29L5.85 9.54C8.71309 6.36 7.1239 3.18 4.77 0C11.3783 0.99135 16.2722 -0.034073 22.5478 9.54594C19.2009 7.95969 10.6817 4.8487 9 10.71C24.2151 17.1535 35.1705 25.4226 47.25 33.21L45.45 36.45C28.0867 22.6318 12.9367 14.2018 0 11.16Z"/><path id="shape02" transform="matrix(-1.06852683415694 0.0798520377281159 0.0798520377281159 1.06852683415694 273.755352903839 122.324324935746)" fill="#0c8bb3" fill-rule="evenodd" stroke="#000000" stroke-opacity="0" stroke-width="0" stroke-linecap="square" stroke-linejoin="bevel" d="M0 21.3082L2.23392 13.9191L11.1696 18.2151C16.6362 12.1434 13.6019 6.07168 9.10753 0C21.725 1.89282 31.0691 -0.0650568 43.0513 18.2264C36.6609 15.1977 20.3949 9.25779 17.184 20.449C46.2347 32.7518 67.1523 48.5403 90.2161 63.409L86.7793 69.5953C53.6269 43.2117 24.7005 27.116 0 21.3082Z"/><path id="shape03" transform="matrix(1.04003968023765 0.257766186250179 -0.257766186250179 1.04003968023765 23.4574701571053 72.5327357557855)" fill="#0c8bb3" fill-rule="evenodd" stroke="#000000" stroke-opacity="0" stroke-width="0" stroke-linecap="square" stroke-linejoin="bevel" d="M0 35.3762L3.70879 23.1086L18.544 30.2409C27.6197 20.1606 22.5821 10.0803 15.1205 0C36.0682 3.14249 51.5814 -0.108008 71.4745 30.2598C60.8651 25.2315 33.86 15.3699 28.5292 33.9497C76.7597 54.375 111.487 80.5873 149.778 105.273L144.072 115.543C89.0323 71.7407 41.0082 45.0184 0 35.3762Z"/>
</svg>
