<?xml version="1.0" encoding="UTF-8"?><svg id="Layer_12" xmlns="http://www.w3.org/2000/svg" viewBox="0 0 1000 1000"><path d="m891.34,625.22c-29.79-188.68-194.83-334.91-391.34-334.91S138.46,436.54,108.66,625.22c-5.07,32.12,19.63,61.22,52.15,61.22,125.81,0,179.68,23.24,339.19,23.24s211.27-23.24,339.19-23.24c32.52,0,57.22-29.1,52.15-61.22Zm-143.48-25.24c-.8.14-1.59.2-2.37.2-6.74,0-12.71-4.86-13.87-11.73-17.78-104.72-117.35-183.69-231.61-183.69s-213.83,78.97-231.61,183.69c-1.3,7.67-8.57,12.83-16.25,11.53-7.67-1.3-12.83-8.58-11.53-16.25,9.68-57.03,41.14-109.45,88.59-147.62,47.73-38.39,108.39-59.53,170.8-59.53s123.07,21.14,170.8,59.53c47.45,38.16,78.91,90.59,88.59,147.62,1.3,7.67-3.86,14.94-11.53,16.25Z"/></svg>