<?xml version="1.0" encoding="UTF-8"?><svg id="Layer_10" xmlns="http://www.w3.org/2000/svg" viewBox="0 0 1000 1000"><path d="m401.31,265.51c-.17,8.08-6.72,14.57-14.8,14.68l-23.94.31c-14.57,0-20-5.5-20-20.07l.17-52.53c.05-16.53,13.47-29.9,30-29.9h259.26c16.57,0,30,13.43,30,30v60.01c0,18.56-10.28,35.59-26.69,44.24l-271.6,143.09c-6.57,3.46-10.68,10.27-10.68,17.69v25.47c0,8.28,6.72,15,15,15h410.58c11.05,0,20-8.95,20-20v-101.14c0-11.05-8.95-20-20-20h-188.37c-2.09,0-2.78-2.79-.93-3.77l97.24-51.36c7.2-3.8,15.21-5.79,23.35-5.79h109.35c22.09,0,40,17.91,40,40v145.74c0,21.82-15.39,36.02-22.47,43.27-2.21,2.27-2.27,5.86-.15,8.21,7.04,7.78,22.62,23.34,22.62,50.77v149.56c0,22.09-17.91,40-40,40H180.75c-22.09,0-40-17.91-40-40v-398.5c0-22.09,17.91-40,40-40h263.05c2.09,0,2.78,2.8.93,3.77l-96.96,51.14c-7.19,3.79-15.2,5.78-23.33,5.78h-101.95c-11.05,0-20,8.95-20,20v316.31c0,11.05,8.95,20,20,20h556c11.05,0,20-8.95,20-20v-113c0-11.05-8.95-20-20-20h-467c-16.57,0-30-13.43-30-30v-79.85c0-18.54,10.26-35.56,26.66-44.22l272.59-143.86c4.92-2.6,8-7.7,8-13.27v-11.86c0-8.29-6.72-15-15.01-15l-152.26.06c-14.49,0-19.99,6.51-19.99,20l-.19,9.02Z"/></svg>