<?xml version="1.0" encoding="UTF-8"?><svg id="Layer_11" xmlns="http://www.w3.org/2000/svg" viewBox="0 0 1000 1000"><path d="m499.89,441.17c3.63-7.72,5.44-16.61,5.44-26.65,0-19.54-6.1-34.14-18.28-43.82-12.19-9.67-29.35-14.51-51.49-14.51h-46.89v120.57h40.19c11.72,0,22.28-1.35,31.68-4.05,9.39-2.7,17.4-6.7,24-12,6.6-5.3,11.72-11.81,15.35-19.54Z"/><path d="m764.46,399.16l-65.49-.98c-14.74-.22-28.02-8.92-34.12-22.33l-68.15-149.92c-7.73-17-24.68-27.92-43.36-27.92H236.84c-21.03,0-38.08,17.03-38.11,38.06l-.68,523.53c-.03,20.95,16.87,38,37.82,38.16l527.73,3.97c21.16.16,38.39-16.95,38.39-38.11v-326.34c0-20.82-16.72-37.79-37.54-38.1Zm-194.75,279.95h-34.87c-3.7,0-7.07-2.14-8.63-5.5l-51.86-111.17c-4.1-8.93-8.28-16.33-12.56-22.19-4.28-5.86-8.89-10.51-13.82-13.96-4.93-3.44-10.33-5.9-16.19-7.4-5.86-1.49-12.42-2.23-19.68-2.23h-23.44v152.91c0,5.26-4.27,9.53-9.53,9.53h-30.63c-5.26,0-9.53-4.27-9.53-9.53v-345.74c0-5.26,4.27-9.53,9.53-9.53h88.16c21.21,0,39.44,2.33,54.7,6.98,15.25,4.65,27.77,11.16,37.54,19.54s16.93,18.47,21.49,30.28c4.56,11.82,6.84,24.89,6.84,39.21,0,11.35-1.67,22.1-5.02,32.24-3.35,10.14-8.33,19.35-14.93,27.63-6.61,8.28-14.79,15.45-24.56,21.49-9.77,6.05-20.98,10.56-33.63,13.54,10.23,3.54,18.93,9.72,26.1,18.56,7.16,8.84,14.47,20.61,21.91,35.31l51.2,106.36c3.04,6.32-1.56,13.66-8.58,13.66Z"/></svg>