<?xml version="1.0" encoding="UTF-8"?>
<svg xmlns="http://www.w3.org/2000/svg" width="133" height="26" viewBox="0 0 133 26" fill="none"> <path d="M0 25.7321V0.501953H6.81156C11.8153 0.501953 14.3171 2.68477 14.3171 7.05041C14.3171 10.2243 12.5202 12.2301 8.92642 13.0677C10.2267 13.5314 11.164 14.226 11.7385 15.1513C12.4424 16.4077 13.0377 18.425 13.5245 21.2031L13.9208 23.0219C14.185 24.4329 14.3725 25.3363 14.4832 25.7321H11.2419C11.0226 24.5195 10.703 22.5911 10.2831 19.9467C9.62534 16.1764 8.07126 14.2473 5.62094 14.1596H2.94202V25.7321H0ZM2.94202 11.4807H5.68674C9.43404 11.4807 11.3077 10.004 11.3077 7.05041C11.3077 4.47071 9.65441 3.18087 6.34784 3.18087H2.94202V11.4807Z" fill="#1457FE"/> <path d="M24.2089 0.0395508C29.0142 0.0395508 31.4168 4.36024 31.4168 13.0016C31.4168 21.643 28.9698 25.9637 24.0757 25.9637C19.1816 25.9637 16.7346 21.6759 16.7346 13.1003C16.7346 4.39312 19.226 0.0395508 24.2089 0.0395508ZM24.0099 2.85002C21.1671 2.85002 19.7452 6.24485 19.7441 13.0345C19.7441 19.7803 21.1879 23.1532 24.0757 23.1532C26.9635 23.1532 28.4074 19.8132 28.4074 13.1332C28.4074 6.27774 26.9416 2.85002 24.0099 2.85002Z" fill="#1457FE"/> <path d="M33.864 25.5015V0.504883H39.4553C42.5404 0.504883 44.6235 1.01194 45.7044 2.02606C46.3505 2.59572 46.8653 3.29871 47.2134 4.08656C47.5615 4.87441 47.7345 5.72838 47.7206 6.58958C47.7206 9.50037 46.3316 11.4623 43.5535 12.4753C46.7504 13.3568 48.3488 15.4612 48.3488 18.7886C48.3488 20.7499 47.6762 22.3945 46.331 23.7221C45.0965 24.9127 43.19 25.5081 40.6114 25.5081L33.864 25.5015ZM36.806 11.1827H39.5507C43.0338 11.1827 44.7753 9.72786 44.7753 6.81817C44.7753 5.42801 44.3368 4.44678 43.4597 3.87449C42.7756 3.43595 41.563 3.21668 39.822 3.21668H36.8126L36.806 11.1827ZM36.806 22.7897H40.0802C43.6291 22.7897 45.4035 21.3568 45.4035 18.4909C45.4035 15.4266 43.5189 13.8918 39.7497 13.8863H36.806V22.7897Z" fill="#1457FE"/> <path d="M58.0694 0.0395508C62.8746 0.0395508 65.2773 4.36024 65.2773 13.0016C65.2773 21.643 62.8302 25.9637 57.9362 25.9637C53.0443 25.9637 50.5978 21.6759 50.5967 13.1003C50.5967 4.39312 53.0876 0.0395508 58.0694 0.0395508ZM57.8704 2.85002C55.0275 2.85002 53.6061 6.24485 53.6061 13.0345C53.6061 19.7803 55.0495 23.1532 57.9362 23.1532C60.8228 23.1532 62.2672 19.8132 62.2694 13.1332C62.2694 6.27774 60.8031 2.85002 57.8704 2.85002Z" fill="#1457FE"/> <path d="M81.7784 7.34604H78.6374C78.3085 4.32671 77.2171 2.81705 75.3632 2.81705C72.1443 2.81705 70.5354 6.32206 70.5365 13.3321C70.5365 19.8783 72.0797 23.152 75.1659 23.1531C77.1711 23.1531 78.4823 21.4669 79.0995 18.0946H82.2422C81.3377 23.3406 79.0672 25.9636 75.4306 25.9636C70.1605 25.9636 67.526 21.6878 67.5271 13.1364C67.5271 9.25642 68.1663 6.10388 69.4446 3.67878C70.7229 1.22626 72.7067 0 75.3961 0C79.1225 0 81.25 2.44868 81.7784 7.34604Z" fill="#1457FE"/> <path d="M91.9282 0.0395508C96.7346 0.0395508 99.1378 4.36024 99.1378 13.0016C99.1378 21.643 96.6907 25.9637 91.7967 25.9637C86.9026 25.9637 84.4556 21.6759 84.4556 13.1003C84.4567 4.39312 86.9475 0.0395508 91.9282 0.0395508ZM91.7309 2.85002C88.8859 2.85002 87.4639 6.24485 87.465 13.0345C87.465 19.7803 88.9089 23.1532 91.7967 23.1532C94.6844 23.1532 96.1283 19.8132 96.1283 13.1332C96.1294 6.27774 94.6642 2.85002 91.7325 2.85002H91.7309Z" fill="#1457FE"/> <path d="M101.586 25.5015V0.504883H106.52C112.891 0.504883 116.076 4.67098 116.076 13.0032C116.076 17.1035 115.206 20.3333 113.465 22.6927C112.097 24.5663 109.936 25.5031 106.982 25.5031L101.586 25.5015ZM104.528 22.6943H106.778C108.982 22.6943 110.58 21.9225 111.572 20.3788C112.564 18.8352 113.06 16.3443 113.06 12.9062C113.06 6.51229 110.944 3.31536 106.711 3.31536H104.528V22.6943Z" fill="#1457FE"/> <path d="M118.517 25.5015V0.504883H133V3.31536H121.461V11.3143H131.148V14.1264H121.461V22.6943H133V25.5048L118.517 25.5015Z" fill="#1457FE"/> </svg>